<svg
                    viewBox="174.976 195.83 54.457 40.843"
                    width="54.457"
                    height="40.843"
                    fill=""
                    xmlns="http://www.w3.org/2000/svg"
                  >
                    <path
                      fill="#1d4ed8"
                      d="M 229.411 200.538 L 223.603 208.025 L 225.821 214.444 L 229.411 200.538 Z"
                      transform="matrix(1, 0, 0, 1, 0, -3.552713678800501e-15)"
                    />
                    <path
                      fill="#1d4ed8"
                      d="M 229.433 200.53 L 221.379 205.564 L 215.157 202.764 L 229.433 200.53 Z"
                      transform="matrix(1, 0, 0, 1, 0, -3.552713678800501e-15)"
                    />
                    <path
                      fill="#000"
                      d="M 186.448 233.014 C 189.89 235.401 193.988 236.678 198.185 236.673 C 209.54 236.673 218.744 227.53 218.744 216.251 C 218.743 214.999 218.626 213.749 218.395 212.518 C 212.695 220.134 198.865 236.329 186.448 233.014 Z"
                      transform="matrix(1, 0, 0, 1, 0, -3.552713678800501e-15)"
                    />
                    <path
                      fill="#1d4ed8"
                      d="M 217.567 209.436 C 216.148 205.457 213.522 202.012 210.052 199.576 C 206.581 197.139 202.436 195.831 198.185 195.83 C 186.831 195.83 177.626 204.972 177.626 216.251 C 177.624 217.803 177.8 219.35 178.151 220.863 C 176.597 221.099 174.976 219.527 174.976 219.527 C 175.954 221.354 177.396 222.895 179.16 223.997 L 179.182 224.049 C 179.865 224.456 180.579 224.807 181.319 225.1 C 182.283 225.492 183.288 225.772 184.317 225.935 C 191.413 227.157 202.033 223.983 217.567 209.436 Z"
                      transform="matrix(1, 0, 0, 1, 0, -3.552713678800501e-15)"
                    />
                  </svg>